<svg xmlns="http://www.w3.org/2000/svg" width="167" height="209"><path fill-rule="evenodd" fill="#343434" d="M126.708 157.3c-18.366-10.001-13.938-43.631 11.212-43.631 12.672 0 22.948 10.293 22.948 22.986 0 8.696-4.408 16.264-11.933 20.17 10.23 4.159 17.548 14.011 18.035 25.631l.028 23.744c0 1.457-1.339 2.8-2.198 2.8h-52.68c-1.652 0-2.991-1.343-2.991-2.8v-23.744c.054 0 .047-.256.051-.506.666-11.27 7.731-20.728 17.528-24.65zM87.45 40.156l-9.292 9.431 3.772-.025c3.934-.025 3.973 5.971.04 5.997l-13.993.091-.093-14.014c-.025-3.941 5.961-3.98 5.987-.04l.025 3.78 9.292-9.432c2.782-2.823 7.043 1.389 4.262 4.212zM84.277 82.12c1.496-1.301 4.297-7.66 3.554-9.559-.184.369-1.336-1.088-2.561-1.704-3.328-1.294-6.496-1.931-9.801-2.277-1.969-.254-3.281-.345-4.138 2.02-.019-.15-.039.24-.06-.478l.001.001c-1.71 3.165-4.74 3.856-8.104 3.597-4.93-1.978-10.485-7.099-11.768-11.95-1.554-3.526-.997-6.954 2.545-9.333 1.492-1.005 1.45-1.316 1.332-2.184-.568-3.573-.438-7.49-2.001-11.71-.459-1.241-.851-2.178-.995-2.208-3.983-.833-8.565 1.991-10.637 5.286-2.114 4.121-2.278 7.485-1.222 12.047 1.088 4.705 2.963 9.02 5.573 12.828 2.58 3.765 5.884 7.038 9.861 9.705 3.901 2.611 11.634 6.07 17.961 7.274 5.113.759 8.393 1.365 10.46-1.355zm3.905 4.521c-3.843 3.344-9.512 3.782-15.394 2.736-7.619-1.157-15.845-5.261-20.252-8.21-4.625-2.507-7.866-6.912-10.926-11.298-3.28-4.418-5.75-9.418-7.011-14.569-1.437-6.511-.759-11.12 1.994-16.864 3.402-5.196 11.017-9.303 16.904-7.956 3.043.66 4.272 2.975 5.392 6.001 1.729 4.671 1.674 8.34 2.304 12.975.487 3.874.66 4.855-3.927 7.947-.815.546-.901 1.46-.567 2.446 1.019 3.008 4.958 6.613 8.012 7.438.66.178 1.164.215 1.589.014 2.367-5.45 4.331-4.731 10.47-4.67 3.145.709 6.977 1.199 10.549 2.698 2.816 1.181 5.207 2.832 6.076 5.053 1.743 4.447-1.825 13.312-5.213 16.259zM9.333 0h79.348c2.571 0 4.907 1.51 6.597 2.745C96.97 4.44 98.21 6.781 98.21 9.354v3.137h2.943c2.571 0 5.437 1.053 6.597 2.746a9.34 9.34 0 012.742 6.609v98.575c0 2.359-1.34 2.998-2.993 2.998-.813 0-1.55.531-2.09-.851L86.99 107.433H21.805a9.31 9.31 0 01-6.587-2.744l-.005-.008-.007-.004-.005-.008c-1.689-1.699-2.736-4.032-2.736-5.889v-3.839H9.333c-2.558 0-4.889-1.051-6.587-2.746l-.005-.006-.006-.006-.006-.005C1.41 90.478.6 88.145.6 85.586V9.354c0-2.562.83-4.898 2.135-6.598l.006-.006.005-.005.007-.006C4.45 1.47 6.779 0 9.333 0zM92.34 12.491V9.354c0-.919-.685-1.758-.88-2.369-1.023-.61-1.861-.99-2.779-.99H9.333a3.33 3.33 0 00-2.365.978l-.012.012a3.34 3.34 0 00-.976 2.369v76.232c0 .928.374 1.767.976 2.37l.012.011a3.33 3.33 0 002.365.978h3.132V21.846a9.34 9.34 0 012.741-6.597l.007-.006.005-.006.006-.006c1.697-1.691 4.026-2.74 6.581-2.74H92.34zm8.813 5.997H21.805c-.926 0-1.395.374-2.366.977l-.011.011c-.602 1.324-.976 1.442-.976 2.37V98.78c0 .82.374 1.065.976 1.668l.011.012c.971 1.16 1.44.977 2.366.977H88.43v.011c.28 0 .952.222 1.507.68l14.569 12.862V21.846c0-.918-.379-.966-.988-2.369-.61-.61-.808-.989-2.365-.989zm60.017 164.006c-.453-5.881-2.957-11.18-6.854-15.084-4.159-4.165-9.905-6.744-15.676-6.744-12.871 0-22.91 9.67-23.53 21.831V203.4h46.06v-20.906zm-6.734-41.956c-6.839-.99-12.85-5.044-15.796-10.894-4.147 5.93-10.273 10.013-17.227 10.931 1.766 8.125 8.485 13.07 16.507 13.07 8.035 0 14.764-5.135 16.516-13.107zm-32.566-5.975c6.063-1.097 11.737-6.352 13.39-13.41-.13.437-.262-.187-.275-.281-.043-.31-.078-.623-.107-.933-7.244 1.314-12.885 7.234-13.008 14.624zm19.375-14.569c-.029.292-.063.585-.103.878-.012.094-.028.718-.041.281 1.399 6.961 7.449 12.473 13.661 13.494-.862-7.332-6.383-13.232-13.517-14.653z"/></svg>