<svg xmlns="http://www.w3.org/2000/svg" width="164" height="179"><path fill-rule="evenodd" fill="#343434" d="M139.133 54.5l-5.986 7.129V23.254a.602.602 0 00-.592-.593h-31.094v6.063h19.125c3.622 0 6.576 2.963 6.576 6.597V72.1l-5.985 10.291v-47.07c0-.221-.273-.593-.591-.593h-19.131c-.097 1.571-.875 2.815-2.987 2.815H40.655c-1.005 0-2.89-1.244-2.987-2.814H18.537c-.317 0-.59.471-.59.593v125.139c0 .32.273 1.089.59 1.089 34.017 0 68.033-.02 102.049-.02.318 0 .591-.749.591-1.069v-45.052l5.985-4.752v49.804c0 4.479-2.954 7.099-6.576 7.099-34.016 0-68.032.02-102.049.02-3.622 0-6.575-2.62-6.575-7.119V35.322c0-3.634 2.953-6.597 6.575-6.597h19.125v-6.063H6.566a.602.602 0 00-.59.593v149.148a.6.6 0 00.59.592h125.989c.32 0 .592-.273.592-.594V98.775l5.986-10.255v83.881c0 3.959-2.954 6.598-6.578 6.598H6.566c-3.621 0-5.766-2.639-5.766-6.596V23.255c0-3.634 2.145-6.597 5.766-6.597h31.096v-2.962c0-1.316 1.638-3.002 2.993-3.002h13.317c1.578-2.788 2.887-5.213 5.181-7.044C62.15 1.365 65.633 0 69.561 0c3.93 0 7.548 1.365 10.41 3.65 2.293 1.831 4.709 4.256 5.181 7.044h13.316c1.653 0 2.993 1.686 2.993 3.002v2.961h31.094c3.624 0 6.578 2.964 6.578 6.597V54.5zM34.436 122.904h14.957c2.748 0 5.109 1.702 6.091 4.236l4-3.571c2.979-2.469 6.86 1.991 3.881 4.547l-7.394 6.375v10.146c0 3.635-2.801 6.598-6.578 6.598H34.436c-3.624 0-6.578-2.963-6.578-6.598V129.5c0-3.633 2.954-6.596 6.578-6.596zm0-75.794h14.957c2.748 0 5.109 1.704 6.091 4.111l4-3.447c2.979-2.557 6.86 1.993 3.881 4.55l-7.394 6.373v10.148c0 3.634-2.801 6.597-6.578 6.597H34.436c-3.624 0-6.578-2.963-6.578-6.597V53.707c0-2.977 2.954-6.597 6.578-6.597zM72.2 70.185c-3.36 0-3.36-6.003 0-6.003h15.406c3.938 0 3.938 6.003 0 6.003H72.2zm0-12.257c-3.36 0-3.36-6.004 0-6.004h30.993c3.938 0 3.938 6.004 0 6.004H72.2zm-34.53 2.533c-2.831-2.714 1.284-7.03 4.115-4.315l3.778 3.627 4.421-3.811v-2.255a.601.601 0 00-.591-.593H34.436a.603.603 0 00-.593.593v15.138c0 .32.273.593.593.593h14.957c.32 0 .591-.273.591-.593v-4.988l-2.58 2.963-.006-.07c-1.147.88-2.878.59-3.992-.785l-5.736-5.504zM34.436 85.7h14.957c2.748 0 5.109 1.01 6.091 3.418l4-3.447c2.979-2.558 6.86 1.992 3.881 4.55l-7.394 6.373v10.146c0 3.635-2.801 6.598-6.578 6.598H34.436c-3.624 0-6.578-2.963-6.578-6.598V91.605c0-3.635 2.954-5.905 6.578-5.905zM72.2 108.83c-3.36 0-3.36-6.05 0-6.05h15.406c3.938 0 3.938 6.05 0 6.05H72.2zm0-13.006c-3.36 0-3.36-6.003 0-6.003h30.993c3.938 0 3.938 6.003 0 6.003H72.2zm-34.53 2.535c-2.831-2.715 1.284-7.032 4.115-3.919l3.778 3.229 4.421-3.811v-2.253c0-.321-.271-.495-.591-.495H34.436c-.32 0-.593.174-.593.495v15.135c0 .87.273.595.593.595h14.957c.32 0 .591.275.591-.595v-4.987l-2.58 2.226-.006-.008a2.969 2.969 0 01-3.992-.109l-5.736-5.503zm34.53 47.619c-3.36 0-3.36-6.004 0-6.004h15.406c3.938 0 3.938 6.004 0 6.004H72.2zm0-12.257c-3.36 0-3.36-6.004 0-6.004h30.993c3.938 0 3.938 6.004 0 6.004H72.2zm-34.53 2.534c-2.831-2.714 1.284-7.031 4.115-4.317l3.778 3.627 4.421-3.81V129.5a.602.602 0 00-.591-.593H34.436a.604.604 0 00-.593.593v15.137c0 .321.273.594.593.594h14.957c.32 0 .591-.273.591-.594v-4.987l-2.58 2.224-.006-.006a2.969 2.969 0 01-3.992-.109l-5.736-5.504zM69.561 18.557a2.998 2.998 0 01-2.993-3.002 2.998 2.998 0 012.993-3.002 2.998 2.998 0 012.994 3.002 2.998 2.998 0 01-2.994 3.002zM62.87 8.34c-1.46 1.46-3.174 3.505-3.75 5.85a2.996 2.996 0 01-2.952 2.507h-12.52v14.842h51.828V16.697h-12.52v-.006c-1.362.002-2.594-.939-2.506-2.328-.956-2.417-2.322-4.527-4.197-6.023-1.831-1.462-3.293-1.94-6.692-1.94-2.301 0-4.859.478-6.691 1.94zm78.597 32.87a11.916 11.916 0 017.236-5.344 11.884 11.884 0 019.048 1.312 11.968 11.968 0 015.485 7.349c.76 2.975.391 6.236-1.284 9.079l-36.462 61.637c-.276.467-.658 1.517-1.099 1.083l-16.011 9.468a2.983 2.983 0 01-4.092-1.055 3.008 3.008 0 01-.403-1.794l.61-18.511c.016-.522.165-1.008.413-.834l-.004-.2 36.463-62.033c.032-.053.065-.106.1-.157zm8.709.472c-1.452.838-2.765 1.278-3.612 2.639l-.053.095-36.08 60.988-.231 12.464 10.54-6.34 36.068-60.97c.844-1.432 1.033-3.067.653-4.058.369-1.976-1.325-3.316-2.749-4.163a5.958 5.958 0 00-4.536-.655z"/></svg>