<svg xmlns="http://www.w3.org/2000/svg" width="159" height="162"><path fill-rule="evenodd" fill="#343434" d="M142.658 72.895a12.321 12.321 0 01-8.759-3.642c-2.24-1.853-3.627-5.359-3.627-8.792 0-3.171 1.385-6.542 3.627-8.792s5.338-3.399 8.759-3.399c4.112 0 6.515 1.149 8.757 3.399s4.015 5.621 4.015 8.792c0 3.433-1.773 6.939-4.015 8.792-2.24 2.251-4.645 3.642-8.757 3.642zm-56.39 63.517h15.272v-12.094c-.431 0-.437-.437-.433-.507.298-5.083 1.844-9.894 4.372-13.978H86.86a.601.601 0 00-.592.593v25.986zm15.272 6.018H90.916l10.624 10.32v-10.32zM75.588 55.349H67.32c-3.64 0-3.64-6.018 0-6.018h8.268c3.965 0 3.965 6.018 0 6.018zM19.866 72.21H9.729c-5.147 0-9.352-4.222-9.352-9.389V9.381C.377 4.228 4.596.6 9.729.6H89.18c5.145 0 9.352 3.617 9.352 8.781v75.864a3.004 3.004 0 01-2.997 3.009 2.99 2.99 0 01-2.093-.856L74.999 72.21h-9.843a23.082 23.082 0 01-11.752 17.215c10.244 4.174 17.57 14.061 18.058 25.722l.026 21.265h8.793l-.007-25.986c0-3.642 2.958-6.611 6.586-6.611h23.109c.172 0 .34.014.502.041 2.649-2.368 5.086-3.551 8.185-5.054l22.256-.206c10.244 4.175 17.57 14.061 18.058 25.722l.03 34.66c0 1.661-1.341 3.009-2.6 3.009H2.995c-1.655 0-2.895-1.348-2.895-3.009v-55.451c0-9.044 7.259-15.587 16.268-15.587h11.069c-3.937-4.617-6.911-10.049-7.571-15.73zm45.294-6.018h11.37v.011c.192 0 .864.223 1.42.682l14.588 12.014V9.381c0-1.842-1.378-3.271-3.358-3.271H9.729c-1.856 0-3.357 1.407-3.357 3.271v53.44c0 1.846 1.519 3.371 3.357 3.371H19.86c1.69-10.454 8.698-20.074 22.514-20.074 12.156 0 21.323 8.749 22.786 20.074zM75.588 22.13h-51.48c-3.965 0-3.965-6.018 0-6.018h51.48c3.965 0 3.965 6.018 0 6.018zm0 16.298h-51.48c-3.965 0-3.965-6.018 0-6.018h51.48c3.965 0 3.965 6.018 0 6.018zm-61.99 76.213c.521-8.838 4.954-15.891 11.547-21.529h-8.777c-5.701 0-10.376 4.693-10.376 10.415v32.885h7.555v-21.265c.053 0 .046-.437.051-.506zm68.625 27.789H5.992v13.539h90.464L82.223 142.43zM58.912 73.8c-6.272-.93-12.462-5.6-16.394-11.651-3.574 5.951-9.709 10.048-16.672 10.97 1.768 7.52 8.496 13.117 16.528 13.117 8.046 0 14.783-5.616 16.538-12.436zm-33.393-5.96c6.855-1.857 13.041-7.129 13.958-14.213l-.041-.282c-.043-.015-.078-.625-.108-.936-6.578 1.319-12.901 7.26-13.809 15.431zm20.184-15.376c-.028.293-.062 1.046-.102.881-.012.094-.028.187-.041.282 1.401 6.985 6.963 12.518 13.679 13.542-.864-7.357-6.391-13.28-13.536-14.705zm19.799 62.722c-.3-5.902-2.808-11.22-6.71-14.706-4.164-4.612-9.918-7.198-16.274-7.198-12.311 0-22.362 9.702-22.984 21.906v20.58h45.968v-20.582zm83.917-2.076h-15.116c-5.7 0-10.375 4.693-10.375 10.415v32.444h29.182v-31.612c-.31-4.129-1.599-7.97-3.691-11.247zm-31.485 42.859v-32.444c0-9.044 7.36-15.605 16.369-15.605h9.559c-3.762-3.741-8.642-5.468-13.582-5.468-12.564 0-22.615 9.704-22.86 21.907v31.61h10.514zm20.203-90.97a6.366 6.366 0 004.521 1.879c1.764 0 3.562-.719 4.519-1.879 1.155-1.161 2.303-2.765 2.303-4.538 0-1.772-1.146-2.621-2.303-4.537-.957-1.16-2.755-1.474-4.519-1.474-1.766 0-3.364.314-4.521 1.474-1.155 1.916-1.871 2.765-1.871 4.537 0 1.773.716 3.377 1.871 4.538zm6.484 4.88c-.162-.285 5.075-3.237 4.896-3.512a23.04 23.04 0 013.344 11.99c0 9.05-5.192 16.884-12.751 20.843-6.149 3.73-13.909 3.03-20.182.229-19.822-8.852-16.503-44.141 9.955-44.141 1.532 0 3.031.151 4.478.439 1.259.138-1.921 5.687-1.246 5.888-.425-.202-2.127-.308-3.232-.308-4.973 0-9.447 2.146-12.554 5.566.424 9.038 7.856 16.235 16.964 16.235 4.974 0 9.448-2.146 12.554-5.566a17.008 17.008 0 00-2.226-7.663zm.129 16.725c-3.136 1.612-6.16 2.521-10.457 2.521-11.094 0-18.119-6.203-21.075-13.475.682.48-.318 1.58-.318 2.707 0 9.417 7.602 17.048 16.983 17.048 6.4 0 11.971-3.553 14.867-8.801z"/></svg>