<svg xmlns="http://www.w3.org/2000/svg" width="32" height="33"><defs><filter filterUnits="userSpaceOnUse" id="a" x="0" y="0" width="32" height="33"><feOffset in="SourceAlpha" dy="3"/><feGaussianBlur result="blurOut" stdDeviation="1.732"/><feFlood flood-color="#000" result="floodOut"/><feComposite operator="atop" in="floodOut" in2="blurOut"/><feComponentTransfer><feFuncA type="linear" slope=".09"/></feComponentTransfer><feMerge><feMergeNode/><feMergeNode in="SourceGraphic"/></feMerge></filter></defs><g filter="url(#a)"><path fill-rule="evenodd" fill="#FFF" d="M15.748 26.379c-2.208 0-4.363-.543-6.303-1.591L2.3 26.999c.37-1.543.995-3.041 1.597-4.614h.001c.283-.743.557-1.459.769-1.977a13.12 13.12 0 01-2.163-7.22C2.504 5.904 8.433.1 15.748.1c3.657 0 6.968 1.374 9.365 3.762a13.12 13.12 0 013.88 9.326c0 7.285-5.373 13.191-13.245 13.191zm-4.907-12.474c-.441-1.124-1.473-2.354-1.493-3.335-.049-2.461 1.479-3.304 1.991-3.304.391 0 1.105-.118 1.355.47.563 1.904.794 1.901.951 2.367.217.647.135.724.007 1.417-.246-.034-1.08 1.29-1.005.787.529 1.581 3.273 4.009 4.935 4.315.236.044.713-.861 1.11-1.164.206-.157.888-.617 1.039-.492.485.594 1.135.625 3.019 1.714-.079-.376.011.15-.115.518-.148.43-.415 2.148-2.87 2.439-.848.101-1.951-.258-3.03-.768-2.896-1.371-4.078-2.414-5.894-4.964zm4.907 10.459c6.198 0 11.221-5.003 11.221-11.176 0-3.086-1.256-5.88-3.286-7.902-2.031-2.023-4.836-3.166-7.935-3.166-6.198 0-11.222 5.04-11.222 11.068 0 2.766.859 4.8 2.448 7.001-.58 1.229-.996 2.411-1.481 3.674l4.2-1.248c1.957 1.144 3.756 1.749 6.055 1.749z"/></g></svg>