<svg xmlns="http://www.w3.org/2000/svg" width="30" height="25"><defs><filter filterUnits="userSpaceOnUse" id="a" x="0" y="0" width="30" height="25"><feOffset in="SourceAlpha" dy="3"/><feGaussianBlur result="blurOut" stdDeviation="1.732"/><feFlood flood-color="#000" result="floodOut"/><feComposite operator="atop" in="floodOut" in2="blurOut"/><feComponentTransfer><feFuncA type="linear" slope=".09"/></feComponentTransfer><feMerge><feMergeNode/><feMergeNode in="SourceGraphic"/></feMerge></filter></defs><g filter="url(#a)"><path fill-rule="evenodd" fill="#FFF" d="M2.449 19.14h23.144c.064 0 .125-.141.18-.167l-7.93-7.451s-1.905 2.477-3.844 2.477c-1.882 0-3.799-2.477-3.799-2.477l-7.931 7.451c.055.026.116.167.18.167zm-.189-.77l6.664-8.395L2.26 1.606V18.37zM2.576.982l.2.15s5.906 6.56 9.544 10.138c1.27 1.23 2.409 1.096 3.89-.11 3.081-3.564 9.056-10.028 9.056-10.028l.2-.15H2.576zm23.584.624l-7.042 8.369 7.042 8.395V1.606z"/></g></svg>