<svg xmlns="http://www.w3.org/2000/svg" width="37" height="49"><defs><filter filterUnits="userSpaceOnUse" id="a" x="0" y="0" width="37" height="49"><feOffset in="SourceAlpha" dy="3"/><feGaussianBlur result="blurOut" stdDeviation="1.732"/><feFlood flood-color="#000" result="floodOut"/><feComposite operator="atop" in="floodOut" in2="blurOut"/><feComponentTransfer><feFuncA type="linear" slope=".09"/></feComponentTransfer><feMerge><feMergeNode/><feMergeNode in="SourceGraphic"/></feMerge></filter></defs><g filter="url(#a)"><path fill-rule="evenodd" fill="#FFFEFF" d="M22.157 31.873c-1.326.36-4.158 5.487-4.158 5.487s-2.42-5.074-3.568-5.15C7.312 30.378 1.999 23.924 1.999 16.212 1.999 7.258 9.163 0 17.999 0c8.837 0 16 7.258 16 16.212 0 7.498-5.021 13.968-11.842 15.661zM17.999 14.98c-1.536 0-2.782.38-2.782 1.937 0 1.558 1.246 2.82 2.782 2.82 1.537 0 2.783-1.262 2.783-2.82 0-1.557-1.246-1.937-2.783-1.937zm0 25.2a1.4 1.4 0 011.392 1.41 1.4 1.4 0 01-1.392 1.409 1.4 1.4 0 01-1.391-1.409 1.4 1.4 0 011.391-1.41z"/></g></svg>