<svg xmlns="http://www.w3.org/2000/svg" width="41" height="42"><defs><filter filterUnits="userSpaceOnUse" id="a" x="0" y="0" width="41" height="42"><feOffset in="SourceAlpha" dy="3"/><feGaussianBlur result="blurOut" stdDeviation="1.732"/><feFlood flood-color="#000" result="floodOut"/><feComposite operator="atop" in="floodOut" in2="blurOut"/><feComponentTransfer><feFuncA type="linear" slope=".09"/></feComponentTransfer><feMerge><feMergeNode/><feMergeNode in="SourceGraphic"/></feMerge></filter></defs><g filter="url(#a)"><path fill-rule="evenodd" fill="#FFF" d="M5.33 6.115C1.1 6.115 1.1.12 5.33.12 23.242.12 38.5 14.742 38.5 32.942c0 4.029-6.625 4.029-6.625 0 0-14.818-12.017-26.827-26.545-26.827zm.1 19.167c-4.032 0-4.032-6.127 0-6.127 7.076 0 12.812 5.734 12.812 12.806 0 4.03-6.13 4.03-6.13 0a6.68 6.68 0 00-6.682-6.679zm-.185-9.723c-4.032 0-4.032-6.127 0-6.127 12.528 0 22.684 10.15 22.684 22.67 0 4.03-6.131 4.03-6.131 0 0-9.137-7.41-16.543-16.553-16.543z"/></g></svg>