<svg xmlns="http://www.w3.org/2000/svg" width="33" height="34"><defs><filter filterUnits="userSpaceOnUse" id="a" x="0" y="0" width="33" height="34"><feOffset in="SourceAlpha" dy="3"/><feGaussianBlur result="blurOut" stdDeviation="1.732"/><feFlood flood-color="#000" result="floodOut"/><feComposite operator="atop" in="floodOut" in2="blurOut"/><feComponentTransfer><feFuncA type="linear" slope=".09"/></feComponentTransfer><feMerge><feMergeNode/><feMergeNode in="SourceGraphic"/></feMerge></filter></defs><g filter="url(#a)"><path fill-rule="evenodd" fill="#FFF" d="M25.912 23.668c-2.526 2.51-6.014 4.062-9.472 4.062-1.496 0-2.595-.131-3.671-.389-1.063.519-2.097-.636-3.082-1.14-.094-.047-.342.399-.568-.33l-.003-.001-4.946 1.528L1.997 28.4l.836-1.63c.482-1.805.717-2.525.96-3.268.189-.579.383-1.173.684-1.946-.149-.201-.298-.402-.352.104-.666-1.68-1.174-2.845-1.516-4.056-.343-1.215.281-2.474.281-3.741 0-3.533.761-7.296 3.287-9.283C8.702 1.548 12.191.3 16.44.3c1.488 0 3.29.07 4.938 1.18 2.542.274 3.251 1.303 4.534 3.1 1.282.752 2.318 2.28 3.028 3.983a13.757 13.757 0 011.059 5.3 13.78 13.78 0 01-4.087 9.805zm1.214-14.364A11.911 11.911 0 0024.52 5.44c-1.109-1.103-1.6-1.988-3.888-2.589-1.409-.58-2.958-.9-4.192-.9-3.706 0-6.703 1.334-8.872 3.489-2.169 2.155-2.998 5.134-2.998 8.423 0 1.098-.362 2.547-.07 3.907.294.35.73 1.35 1.301 2.74.021.35.17-.224.307-.04.142.189.274.367.305.413l.282.429-.194.472c.469.986-.625 1.664-.84 2.322-.091.278-.181.553-.281.844l3.582-1.074.386-.116.364.196c.064.036.233.964.413.243l.453.269c.845.43 1.735.758 2.653.979.907.217 2.579.327 3.209.327 2.915 0 5.911-1.332 8.08-3.489 2.17-2.155 3.79-5.133 3.79-8.422 0-1.62-.601-3.16-1.184-4.559zm-5.866 4.304c0-1.718-2.289-4.138-4.824-4.138-.689 0-.689-.87 0-.87 3.114 0 6.304 1.914 6.304 5.008 0 .684-1.48.684-1.48 0zm-4.755-2.344c1.209 0 2.19.974 2.19 2.177 0 .685-1.048.685-1.048 0 0-.627-.511-1.135-1.142-1.135-.69 0-.69-1.042 0-1.042zm-.032-1.653c2.142 0 3.878 1.725 3.878 3.854 0 .685-1.048.685-1.048 0 0-1.554-.943-2.812-2.83-2.812-.689 0-.689-1.042 0-1.042zM14.999 15.9c.751-.212 2.161 1.059 2.657.57.554-1.21.682-.95 1.609-1.131.602.185 2.54 1.487 2.571 2.35.003.08.001.29-.049.434-.165.471-.502 1.165-1.295 1.672-.212.136-.524.155-.866.155-1.099.001-3.126-1.591-4.186-2.372-.565-.131-.75-.283-.787-.313-.876-.695-1.353-1.457-2.013-2.809-1.334-1.09-2.467-2.897-2.473-3.841-.003-.34.013-.65.148-.863.504-.792 1.199-1.132 1.672-1.3.145-.052.356-.054.436-.052.87.024 2.195 1.938 2.387 2.536.296.919.088 1.047-.7 1.604-.873.617.158 1.895.889 3.36z"/></g></svg>