<svg xmlns="http://www.w3.org/2000/svg" width="21" height="27"><defs><filter filterUnits="userSpaceOnUse" id="a" x="0" y="0" width="21" height="27"><feOffset in="SourceAlpha" dy="3"/><feGaussianBlur result="blurOut" stdDeviation="1.732"/><feFlood flood-color="#000" result="floodOut"/><feComposite operator="atop" in="floodOut" in2="blurOut"/><feComponentTransfer><feFuncA type="linear" slope=".09"/></feComponentTransfer><feMerge><feMergeNode/><feMergeNode in="SourceGraphic"/></feMerge></filter></defs><g filter="url(#a)"><path fill-rule="evenodd" fill="#FFF" d="M13.393 20.288c.521.114 1.001.19 1.37.054 1.376-.506 2.118-1.446 2.527-2.106.125.104.196-.52.218-.642.239-1.322-2.278-3.942-3.133-4.425-.795-.744-1.581-.471-2.685.54-1.278 1.169-2.783-1.18-3.729-2.338-.291-1.238-2.04-3.522-.506-4.167C8.839 6.621 9.2 6.496 9.54 5.2 8.96 4.32 7.578.685 6.263.358c-.122-.03-.444-.095-.682-.065-.776.097-1.947.381-2.977 1.415-.277.278-.404.743.306 1.259-1.122 1.436.002 4.556.793 6.463.982 2.364 1.907 3.779 3.01 5.126.046.057.278.35.491.605 1.204 1.507 4.516 4.763 6.189 5.127z"/></g></svg>