<svg xmlns="http://www.w3.org/2000/svg" width="19" height="26"><defs><filter filterUnits="userSpaceOnUse" id="a" x="0" y="0" width="19" height="26"><feOffset in="SourceAlpha" dy="3"/><feGaussianBlur result="blurOut" stdDeviation="1.732"/><feFlood flood-color="#000" result="floodOut"/><feComposite operator="atop" in="floodOut" in2="blurOut"/><feComponentTransfer><feFuncA type="linear" slope=".09"/></feComponentTransfer><feMerge><feMergeNode/><feMergeNode in="SourceGraphic"/></feMerge></filter></defs><g filter="url(#a)"><path fill-rule="evenodd" fill="#FFF" d="M7.211 10.875c1.269 1.605 2.14 3.531 3.427 2.46 1.112-.925 1.532-1.177 2.594-.387.978.512 3.043 3.185 2.74 4.455a6.51 6.51 0 01-.245.757c-.428.476-1.19 1.352-2.532 1.773-.36.527-.815.014-1.306-.123-1.576-.438-4.553-3.4-5.617-5.293.568-.259-.393-.555-.434-.613-.976-1.364-1.258-2.785-2.582-5.13-.647-1.893-1.543-4.979-.416-6.358-.622-.496-.474-.941-.194-1.196C3.688.268 4.823.52 5.569.2c.228 0 .532.4.647.75C7.453.479 8.582 3.799 8.617 4.746c.054 1.459-.297 1.562-1.652 2.057-1.501.548-.538 2.824.246 4.072z"/></g></svg>