<svg 
 xmlns="http://www.w3.org/2000/svg"
 xmlns:xlink="http://www.w3.org/1999/xlink"
 width="164px" height="179px">
<path fill-rule="evenodd"  fill="rgb(52, 52, 52)"
 d="M139.133,54.500 L133.147,61.629 L133.147,23.254 C133.147,22.934 132.875,22.661 132.555,22.661 L101.461,22.661 L101.461,28.724 L120.586,28.724 C124.208,28.724 127.162,31.687 127.162,35.321 L127.162,72.10 L121.177,82.391 L121.177,35.321 C121.177,35.1 120.904,34.728 120.586,34.728 L101.455,34.728 C101.358,36.299 100.58,37.543 98.468,37.543 L40.655,37.543 C39.65,37.543 37.765,36.299 37.668,34.729 L18.537,34.729 C18.220,34.729 17.947,35.2 17.947,35.322 L17.947,160.461 C17.947,160.781 18.220,161.55 18.537,161.55 C52.554,161.55 86.570,161.53 120.586,161.53 C120.904,161.53 121.177,160.781 121.177,160.461 L121.177,115.409 L127.162,110.657 L127.162,160.461 C127.162,164.94 124.208,167.56 120.586,167.56 C86.570,167.56 52.554,167.58 18.537,167.58 C14.915,167.58 11.962,164.96 11.962,160.461 L11.962,35.322 C11.962,31.688 14.915,28.725 18.537,28.725 L37.662,28.725 L37.662,22.662 L6.566,22.662 C6.249,22.662 5.976,22.935 5.976,23.255 L5.976,172.403 C5.976,172.724 6.249,172.995 6.566,172.995 C48.563,172.995 90.558,172.995 132.555,172.995 C132.875,172.995 133.147,172.722 133.147,172.401 L133.147,98.775 L139.133,88.520 L139.133,172.401 C139.133,176.36 136.179,178.999 132.555,178.999 C90.558,178.999 48.563,178.999 6.566,178.999 C2.945,178.999 0.8,176.36 0.8,172.403 L0.8,23.255 C0.8,19.621 2.945,16.658 6.566,16.658 L37.662,16.658 L37.662,13.696 C37.662,12.38 39.3,10.694 40.655,10.694 L53.972,10.694 C55.55,7.906 56.859,5.481 59.153,3.650 C62.15,1.365 65.633,0.0 69.561,0.0 C73.491,0.0 77.109,1.365 79.971,3.650 C82.264,5.481 84.68,7.906 85.152,10.694 L98.468,10.694 C100.121,10.694 101.461,12.38 101.461,13.696 L101.461,16.657 L132.555,16.657 C136.179,16.657 139.133,19.621 139.133,23.254 L139.133,54.500 L139.133,54.500 L139.133,54.500 ZM34.436,122.904 C39.422,122.904 44.408,122.904 49.393,122.904 C52.141,122.904 54.502,124.606 55.484,127.14 L59.484,123.569 C62.463,121.10 66.344,125.560 63.365,128.116 L55.971,134.491 L55.971,144.637 C55.971,148.272 53.17,151.235 49.393,151.235 C44.408,151.235 39.422,151.235 34.436,151.235 C30.812,151.235 27.858,148.272 27.858,144.637 C27.858,139.591 27.858,134.545 27.858,129.500 C27.858,125.867 30.812,122.904 34.436,122.904 L34.436,122.904 ZM34.436,47.110 C39.422,47.110 44.408,47.110 49.393,47.110 C52.141,47.110 54.502,48.814 55.484,51.221 L59.484,47.774 C62.463,45.217 66.344,49.767 63.365,52.324 L55.971,58.697 L55.971,68.845 C55.971,72.479 53.17,75.442 49.393,75.442 C44.408,75.442 39.422,75.442 34.436,75.442 C30.812,75.442 27.858,72.479 27.858,68.845 C27.858,63.799 27.858,58.753 27.858,53.707 C27.858,50.73 30.812,47.110 34.436,47.110 L34.436,47.110 ZM72.20,70.185 C68.84,70.185 68.84,64.182 72.20,64.182 L87.606,64.182 C91.544,64.182 91.544,70.185 87.606,70.185 L72.20,70.185 L72.20,70.185 ZM72.20,57.928 C68.84,57.928 68.84,51.924 72.20,51.924 L103.193,51.924 C107.131,51.924 107.131,57.928 103.193,57.928 L72.20,57.928 L72.20,57.928 ZM37.670,60.461 C34.839,57.747 38.954,53.431 41.785,56.146 L45.563,59.773 L49.984,55.962 L49.984,53.707 C49.984,53.387 49.713,53.114 49.393,53.114 C44.408,53.114 39.422,53.114 34.436,53.114 C34.116,53.114 33.843,53.387 33.843,53.707 C33.843,58.753 33.843,63.799 33.843,68.845 C33.843,69.165 34.116,69.438 34.436,69.438 C39.422,69.438 44.408,69.438 49.393,69.438 C49.713,69.438 49.984,69.165 49.984,68.845 L49.984,63.857 L47.404,66.82 L47.398,66.75 C46.251,67.63 44.520,67.34 43.406,65.965 L37.670,60.461 L37.670,60.461 ZM34.436,85.7 C39.422,85.7 44.408,85.7 49.393,85.7 C52.141,85.7 54.502,86.710 55.484,89.118 L59.484,85.671 C62.463,83.113 66.344,87.663 63.365,90.221 L55.971,96.594 L55.971,106.740 C55.971,110.375 53.17,113.338 49.393,113.338 C44.408,113.338 39.422,113.338 34.436,113.338 C30.812,113.338 27.858,110.375 27.858,106.740 C27.858,101.696 27.858,96.649 27.858,91.605 C27.858,87.970 30.812,85.7 34.436,85.7 L34.436,85.7 ZM72.20,108.83 C68.84,108.83 68.84,102.78 72.20,102.78 L87.606,102.78 C91.544,102.78 91.544,108.83 87.606,108.83 L72.20,108.83 L72.20,108.83 ZM72.20,95.824 C68.84,95.824 68.84,89.821 72.20,89.821 L103.193,89.821 C107.131,89.821 107.131,95.824 103.193,95.824 L72.20,95.824 L72.20,95.824 ZM37.670,98.359 C34.839,95.644 38.954,91.327 41.785,94.44 L45.563,97.669 L49.984,93.858 L49.984,91.605 C49.984,91.284 49.713,91.11 49.393,91.11 C44.408,91.11 39.422,91.11 34.436,91.11 C34.116,91.11 33.843,91.284 33.843,91.605 C33.843,96.649 33.843,101.696 33.843,106.740 C33.843,107.61 34.116,107.335 34.436,107.335 C39.422,107.335 44.408,107.335 49.393,107.335 C49.713,107.335 49.984,107.61 49.984,106.740 L49.984,101.753 L47.404,103.979 L47.398,103.971 C46.251,104.960 44.520,104.931 43.406,103.862 L37.670,98.359 L37.670,98.359 ZM72.20,145.978 C68.84,145.978 68.84,139.974 72.20,139.974 L87.606,139.974 C91.544,139.974 91.544,145.978 87.606,145.978 L72.20,145.978 L72.20,145.978 ZM72.20,133.721 C68.84,133.721 68.84,127.717 72.20,127.717 L103.193,127.717 C107.131,127.717 107.131,133.721 103.193,133.721 L72.20,133.721 L72.20,133.721 ZM37.670,136.255 C34.839,133.541 38.954,129.224 41.785,131.938 L45.563,135.565 L49.984,131.755 L49.984,129.500 C49.984,129.181 49.713,128.907 49.393,128.907 C44.408,128.907 39.422,128.907 34.436,128.907 C34.116,128.907 33.843,129.181 33.843,129.500 C33.843,134.545 33.843,139.591 33.843,144.637 C33.843,144.958 34.116,145.231 34.436,145.231 C39.422,145.231 44.408,145.231 49.393,145.231 C49.713,145.231 49.984,144.958 49.984,144.637 L49.984,139.650 L47.404,141.874 L47.398,141.868 C46.251,142.857 44.520,142.828 43.406,141.759 L37.670,136.255 L37.670,136.255 ZM69.561,18.557 C67.909,18.557 66.568,17.213 66.568,15.555 C66.568,13.897 67.909,12.553 69.561,12.553 C71.215,12.553 72.555,13.897 72.555,15.555 C72.555,17.213 71.215,18.557 69.561,18.557 L69.561,18.557 ZM62.870,8.340 C61.41,9.800 59.696,11.845 59.120,14.190 C58.886,15.612 57.652,16.697 56.168,16.697 L43.648,16.697 L43.648,31.539 L95.476,31.539 L95.476,16.697 L82.956,16.697 L82.956,16.691 C81.594,16.693 80.362,15.752 80.45,14.363 C79.494,11.946 78.128,9.836 76.253,8.340 C74.422,6.878 72.96,6.4 69.561,6.4 C67.26,6.4 64.702,6.878 62.870,8.340 L62.870,8.340 ZM141.467,41.210 C143.160,38.446 145.794,36.607 148.703,35.866 C151.665,35.111 154.914,35.488 157.751,37.178 C160.588,38.865 162.474,41.550 163.236,44.527 C163.996,47.502 163.627,50.763 161.952,53.606 L125.490,115.243 C125.214,115.710 124.832,116.76 124.391,116.326 L108.380,125.794 C106.959,126.635 105.128,126.164 104.288,124.739 C103.959,124.176 103.830,123.549 103.885,122.945 L104.495,104.434 C104.511,103.912 104.660,103.426 104.908,103.6 L104.904,103.4 L141.367,41.367 C141.399,41.314 141.432,41.261 141.467,41.210 L141.467,41.210 ZM150.176,41.682 C148.724,42.52 147.411,42.960 146.564,44.321 L146.511,44.416 L110.431,105.404 L110.20,117.868 L120.740,111.528 L156.808,50.558 C157.652,49.126 157.841,47.491 157.461,46.5 C157.83,44.524 156.136,43.184 154.712,42.337 C153.291,41.491 151.663,41.303 150.176,41.682 L150.176,41.682 Z"/>
</svg>