<svg 
 xmlns="http://www.w3.org/2000/svg"
 xmlns:xlink="http://www.w3.org/1999/xlink"
 width="159px" height="162px">
<path fill-rule="evenodd"  fill="rgb(52, 52, 52)"
 d="M142.658,72.895 C139.237,72.895 136.141,71.504 133.899,69.253 C131.659,67.4 130.272,63.894 130.272,60.461 C130.272,57.29 131.657,53.919 133.899,51.669 C136.141,49.419 139.237,48.27 142.658,48.27 C146.77,48.27 149.173,49.419 151.415,51.669 C153.657,53.919 155.43,57.29 155.43,60.461 C155.43,63.894 153.657,67.4 151.415,69.253 C149.175,71.504 146.77,72.895 142.658,72.895 L142.658,72.895 ZM86.268,136.412 L101.54,136.412 L101.54,124.318 C101.109,124.318 101.103,123.881 101.107,123.811 C101.405,118.728 102.951,113.917 105.479,109.833 L86.860,109.833 C86.540,109.833 86.268,110.105 86.268,110.426 L86.268,136.412 L86.268,136.412 ZM101.54,142.430 L90.916,142.430 L101.54,152.75 L101.54,142.430 L101.54,142.430 ZM75.588,55.349 L67.32,55.349 C63.68,55.349 63.68,49.331 67.32,49.331 L75.588,49.331 C79.553,49.331 79.553,55.349 75.588,55.349 L75.588,55.349 ZM19.866,72.210 L9.729,72.210 C4.582,72.210 0.377,67.988 0.377,62.821 L0.377,9.381 C0.377,4.228 4.596,0.6 9.729,0.6 L89.180,0.6 C94.325,0.6 98.532,4.217 98.532,9.381 L98.532,85.245 C98.532,86.906 97.190,88.254 95.535,88.254 C94.721,88.254 93.983,87.926 93.442,87.398 L74.999,72.210 L65.156,72.210 C64.185,79.645 59.688,85.968 53.404,89.425 C63.648,93.599 70.974,103.486 71.462,115.147 L71.488,136.412 L80.281,136.412 L80.274,110.426 C80.274,106.784 83.232,103.815 86.860,103.815 L109.969,103.815 C110.141,103.815 110.309,103.829 110.471,103.856 C113.120,101.488 115.557,100.305 118.656,98.802 L140.912,98.596 C151.156,102.771 158.482,112.657 158.970,124.318 L159.0,158.978 C159.0,160.639 157.659,161.987 156.4,161.987 L104.49,161.987 L2.995,161.987 C1.340,161.987 0.1,160.639 0.1,158.978 L0.1,153.989 L0.1,140.925 L0.1,103.527 C0.1,94.483 7.359,87.94 16.368,87.94 L27.437,87.94 C23.50,83.323 20.526,77.891 19.866,72.210 L19.866,72.210 ZM65.160,66.192 L76.53,66.192 L76.53,66.203 C76.722,66.203 77.394,66.426 77.950,66.885 L92.538,78.899 L92.538,9.381 C92.538,7.539 91.16,6.11 89.180,6.11 L9.729,6.11 C7.873,6.11 6.372,7.517 6.372,9.381 L6.372,62.821 C6.372,64.667 7.891,66.192 9.729,66.192 L19.860,66.192 C21.55,55.738 28.558,46.118 42.374,46.118 C54.53,46.118 63.697,54.867 65.160,66.192 L65.160,66.192 ZM75.588,22.130 L24.108,22.130 C20.143,22.130 20.143,16.112 24.108,16.112 L75.588,16.112 C79.553,16.112 79.553,22.130 75.588,22.130 L75.588,22.130 ZM75.588,38.428 L24.108,38.428 C20.143,38.428 20.143,32.410 24.108,32.410 L75.588,32.410 C79.553,32.410 79.553,38.428 75.588,38.428 L75.588,38.428 ZM13.598,114.641 C14.119,105.803 18.552,98.75 25.145,93.112 L16.368,93.112 C10.667,93.112 5.992,97.805 5.992,103.527 L5.992,136.412 L13.547,136.412 L13.547,115.147 C13.600,115.147 13.593,114.710 13.598,114.641 L13.598,114.641 ZM82.223,142.430 L5.992,142.430 L5.992,152.620 L5.992,155.969 L96.456,155.969 L82.223,142.430 L82.223,142.430 ZM58.912,73.80 C52.64,72.87 46.45,68.20 42.518,62.149 C38.944,68.100 32.809,72.197 25.846,73.119 C27.614,80.639 34.342,86.236 42.374,86.236 C50.420,86.236 57.157,80.620 58.912,73.80 L58.912,73.80 ZM25.519,67.84 C32.374,65.983 38.56,60.711 39.477,53.627 C39.464,53.532 39.449,53.439 39.436,53.345 C39.393,53.33 39.358,52.720 39.328,52.409 C32.75,53.728 26.427,59.669 25.519,67.84 L25.519,67.84 ZM45.703,52.464 C45.675,52.757 45.641,53.51 45.601,53.345 C45.589,53.439 45.573,53.532 45.560,53.627 C46.961,60.612 52.523,66.145 59.239,67.169 C58.375,59.812 52.848,53.889 45.703,52.464 L45.703,52.464 ZM65.502,115.186 C65.202,109.284 62.694,103.966 58.792,100.48 C54.628,95.868 48.874,93.282 42.518,93.282 C30.207,93.282 20.156,102.984 19.534,115.188 L19.534,135.768 L65.502,135.768 L65.502,115.186 L65.502,115.186 ZM149.419,113.110 L134.303,113.110 C128.603,113.110 123.928,117.803 123.928,123.525 L123.928,155.969 L153.11,155.969 L153.11,124.357 C152.800,120.228 151.511,116.387 149.419,113.110 L149.419,113.110 ZM117.934,155.969 L117.934,123.525 C117.934,114.481 125.294,107.92 134.303,107.92 L143.862,107.92 C140.10,104.179 135.220,102.452 130.28,102.452 C117.716,102.452 107.665,112.156 107.42,124.359 L107.42,155.969 L117.934,155.969 L117.934,155.969 ZM138.137,64.999 C139.294,66.159 140.892,66.878 142.658,66.878 C144.422,66.878 146.22,66.159 147.177,64.999 C148.332,63.838 149.48,62.234 149.48,60.461 C149.48,58.689 148.334,57.84 147.177,55.924 C146.22,54.764 144.422,54.45 142.658,54.45 C140.892,54.45 139.294,54.764 138.137,55.924 C136.982,57.84 136.266,58.689 136.266,60.461 C136.266,62.234 136.982,63.838 138.137,64.999 L138.137,64.999 ZM144.621,69.879 C144.459,69.594 149.696,66.642 149.517,66.367 C151.637,69.861 152.861,73.965 152.861,78.357 C152.861,87.407 147.669,95.241 140.110,99.20 C133.961,102.93 126.201,102.230 119.928,99.429 C100.106,90.577 103.425,55.288 129.883,55.288 C131.415,55.288 132.914,55.439 134.361,55.727 C135.62,55.865 132.440,61.414 133.115,61.615 C132.69,61.413 130.988,61.307 129.883,61.307 C124.910,61.307 120.436,63.453 117.329,66.873 C117.753,75.911 125.185,83.108 134.293,83.108 C139.267,83.108 143.741,80.962 146.847,77.542 C146.717,74.761 145.922,72.155 144.621,69.879 L144.621,69.879 L144.621,69.879 ZM144.750,86.604 C141.614,88.216 138.59,89.125 134.293,89.125 C123.199,89.125 116.174,82.922 113.218,75.65 C113.9,76.130 112.900,77.230 112.900,78.357 C112.900,87.774 120.502,95.405 129.883,95.405 C136.283,95.405 141.854,91.852 144.750,86.604 L144.750,86.604 Z"/>
</svg>