<svg 
 xmlns="http://www.w3.org/2000/svg"
 xmlns:xlink="http://www.w3.org/1999/xlink"
 width="167px" height="209px">
<path fill-rule="evenodd"  fill="rgb(52, 52, 52)"
 d="M126.708,157.30 C108.342,147.299 112.77,113.669 137.920,113.669 C150.592,113.669 160.868,123.962 160.868,136.655 C160.868,145.351 156.46,152.919 148.935,156.825 C159.165,160.984 166.483,170.836 166.970,182.456 L166.998,206.2 C166.998,207.657 165.659,209.0 164.8,209.0 L112.120,209.0 C110.468,209.0 109.129,207.657 109.129,206.2 L109.129,182.456 C109.183,182.456 109.176,182.20 109.180,181.950 C109.846,170.680 116.911,161.222 126.708,157.30 L126.708,157.30 ZM87.450,40.156 L78.158,49.587 L81.930,49.562 C85.864,49.537 85.903,55.533 81.970,55.559 L67.977,55.650 L67.884,41.636 C67.859,37.695 73.845,37.656 73.871,41.596 L73.896,45.376 L83.188,35.944 C85.970,33.121 90.231,37.333 87.450,40.156 L87.450,40.156 ZM84.277,82.120 C85.773,80.819 88.574,74.460 87.831,72.561 C87.647,72.93 86.495,71.473 85.27,70.857 C81.942,69.563 78.774,68.926 75.469,68.580 C73.50,68.326 72.188,68.235 71.331,70.6 C71.312,70.45 71.292,70.84 71.271,70.122 L71.272,70.123 C69.562,73.288 66.532,73.979 63.168,73.72 C58.238,71.742 52.683,66.621 51.40,61.770 C49.846,58.244 50.403,54.816 53.945,52.437 C55.437,51.432 55.395,51.121 55.277,50.253 C54.709,46.68 54.839,42.763 53.276,38.543 C52.817,37.302 52.425,36.365 52.281,36.335 C48.298,35.502 43.716,38.326 41.644,41.621 C39.53,45.742 39.366,49.106 40.422,53.668 C41.510,58.373 43.385,62.688 45.995,66.496 C48.575,70.261 51.879,73.534 55.856,76.201 C59.757,78.812 67.49,82.271 73.817,83.475 C78.93,84.234 82.21,84.84 84.277,82.120 L84.277,82.120 ZM88.182,86.641 C84.339,89.985 78.670,90.423 72.788,89.377 C65.169,88.22 56.943,84.116 52.536,81.167 C47.911,78.66 44.67,74.255 41.61,69.869 C38.33,65.451 35.860,60.451 34.599,55.3 C33.162,48.789 33.84,44.18 36.593,38.436 C39.995,33.24 47.61,29.133 53.497,30.480 C56.54,31.14 57.769,33.455 58.889,36.481 C60.618,41.152 60.563,44.821 61.193,49.456 C61.680,53.33 61.853,54.311 57.266,57.403 C56.451,57.949 56.365,58.863 56.699,59.849 C57.718,62.857 61.657,66.462 64.711,67.287 C65.371,67.465 65.875,67.502 66.3,67.301 C68.667,61.851 70.631,62.57 76.77,62.631 C79.915,63.34 83.747,63.830 87.319,65.329 C90.135,66.510 92.526,68.161 93.395,70.382 C95.138,74.829 91.570,83.694 88.182,86.641 L88.182,86.641 ZM9.333,0.0 L88.681,0.0 C91.252,0.0 93.588,1.51 95.278,2.745 C96.970,4.440 98.21,6.781 98.21,9.354 L98.21,12.491 L101.153,12.491 C103.724,12.491 106.59,13.544 107.750,15.237 C109.442,16.932 110.492,19.273 110.492,21.846 L110.492,120.421 C110.492,122.78 109.152,123.419 107.499,123.419 C106.686,123.419 105.949,123.95 105.409,122.568 L86.990,107.433 L21.805,107.433 C19.247,107.433 16.915,106.383 15.218,104.689 L15.213,104.681 L15.206,104.677 L15.201,104.669 C13.512,102.970 12.465,100.637 12.465,98.78 L12.465,94.941 L9.333,94.941 C6.775,94.941 4.444,93.890 2.746,92.195 L2.741,92.189 L2.735,92.183 L2.729,92.178 C1.41,90.478 0.6,88.145 0.6,85.586 L0.6,9.354 C0.6,6.792 1.43,4.456 2.735,2.756 L2.741,2.750 L2.746,2.745 L2.753,2.739 C4.450,1.47 6.779,0.0 9.333,0.0 L9.333,0.0 ZM92.34,12.491 L92.34,9.354 C92.34,8.435 91.655,7.596 91.46,6.985 C90.437,6.375 89.599,5.995 88.681,5.995 L9.333,5.995 C8.407,5.995 7.569,6.370 6.968,6.973 L6.956,6.985 C6.354,7.587 5.980,8.426 5.980,9.354 L5.980,85.586 C5.980,86.514 6.354,87.353 6.956,87.956 L6.968,87.967 C7.569,88.570 8.407,88.945 9.333,88.945 L12.465,88.945 L12.465,21.846 C12.465,19.284 13.515,16.948 15.206,15.249 L15.213,15.243 L15.218,15.237 L15.224,15.231 C16.921,13.540 19.250,12.491 21.805,12.491 L92.34,12.491 L92.34,12.491 ZM101.153,18.488 L21.805,18.488 C20.879,18.488 20.41,18.862 19.439,19.465 L19.428,19.476 C18.826,20.80 18.452,20.918 18.452,21.846 L18.452,98.78 C18.452,99.6 18.826,99.845 19.428,100.448 L19.439,100.460 C20.41,101.62 20.879,101.437 21.805,101.437 L88.43,101.437 L88.43,101.448 C88.710,101.448 89.382,101.670 89.937,102.128 L104.506,114.99 L104.506,21.846 C104.506,20.928 104.127,20.88 103.518,19.477 C102.908,18.867 102.71,18.488 101.153,18.488 L101.153,18.488 ZM161.17,182.494 C160.717,176.613 158.213,171.314 154.316,167.410 C150.157,163.245 144.411,160.666 138.64,160.666 C125.769,160.666 115.730,170.336 115.110,182.497 L115.110,203.4 L161.17,203.4 L161.17,182.494 L161.17,182.494 ZM154.436,140.538 C147.597,139.548 141.586,135.494 138.64,129.644 C134.493,135.574 128.367,139.657 121.413,140.575 C123.179,148.70 129.898,153.645 137.920,153.645 C145.955,153.645 152.684,148.51 154.436,140.538 L154.436,140.538 ZM121.87,134.563 C127.933,133.466 133.607,128.211 135.26,121.153 C135.13,121.59 134.998,120.966 134.985,120.872 C134.942,120.562 134.907,120.249 134.878,119.939 C127.634,121.253 121.993,127.173 121.87,134.563 L121.87,134.563 ZM141.245,119.994 C141.216,120.286 141.182,120.579 141.142,120.872 C141.130,120.966 141.114,121.59 141.101,121.153 C142.500,128.114 148.55,133.626 154.762,134.647 C153.900,127.315 148.379,121.415 141.245,119.994 L141.245,119.994 Z"/>
</svg>
