<svg 
 xmlns="http://www.w3.org/2000/svg"
 xmlns:xlink="http://www.w3.org/1999/xlink"
 width="33px" height="34px">
<defs>
<filter filterUnits="userSpaceOnUse" id="Filter_0" x="0px" y="0px" width="33px" height="34px"  >
    <feOffset in="SourceAlpha" dx="0" dy="3" />
    <feGaussianBlur result="blurOut" stdDeviation="1.732" />
    <feFlood flood-color="rgb(0, 0, 0)" result="floodOut" />
    <feComposite operator="atop" in="floodOut" in2="blurOut" />
    <feComponentTransfer><feFuncA type="linear" slope="0.09"/></feComponentTransfer>
    <feMerge>
    <feMergeNode/>
    <feMergeNode in="SourceGraphic"/>
  </feMerge>
</filter>

</defs>
<g filter="url(#Filter_0)">
<path fill-rule="evenodd"  fill="rgb(255, 255, 255)"
 d="M25.912,23.668 C23.386,26.178 19.898,27.730 16.44,27.730 C14.944,27.730 13.845,27.599 12.769,27.341 C11.706,27.86 10.672,26.705 9.687,26.201 C9.593,26.154 9.345,26.6 9.119,25.871 L9.116,25.870 L4.17,27.398 L1.997,28.4 L2.833,26.77 C3.315,24.965 3.550,24.245 3.793,23.502 C3.982,22.923 4.176,22.329 4.477,21.556 C4.328,21.355 4.179,21.154 4.125,21.66 C3.459,19.980 2.951,18.815 2.609,17.604 C2.266,16.389 2.89,15.130 2.89,13.863 C2.89,10.33 3.651,6.567 6.177,4.58 C8.702,1.548 12.191,0.3 16.44,0.3 C17.928,0.3 19.730,0.370 21.378,1.48 C23.92,1.754 24.629,2.783 25.912,4.58 C27.194,5.332 28.230,6.860 28.940,8.563 C29.622,10.201 29.999,11.991 29.999,13.863 C29.999,17.692 28.437,21.159 25.912,23.668 ZM27.126,9.304 C26.521,7.853 25.630,6.542 24.520,5.440 C23.411,4.337 22.92,3.452 20.632,2.851 C19.223,2.271 17.674,1.951 16.44,1.951 C12.734,1.951 9.737,3.285 7.568,5.440 C5.399,7.595 4.57,10.574 4.57,13.863 C4.57,14.961 4.208,16.41 4.500,17.77 C4.794,18.120 5.230,19.120 5.801,20.51 C5.822,20.86 5.971,20.286 6.108,20.470 C6.250,20.659 6.382,20.837 6.413,20.883 L6.695,21.312 L6.501,21.784 C6.97,22.770 5.876,23.448 5.661,24.106 C5.570,24.384 5.480,24.659 5.380,24.950 L8.962,23.876 L9.348,23.760 L9.712,23.956 C9.776,23.992 9.945,24.92 10.125,24.199 L10.578,24.468 C11.423,24.898 12.313,25.226 13.231,25.447 C14.138,25.664 15.81,25.774 16.44,25.774 C19.355,25.774 22.351,24.442 24.520,22.285 C26.690,20.130 28.31,17.152 28.31,13.863 C28.31,12.243 27.709,10.703 27.126,9.304 ZM21.26,13.608 C21.26,11.89 18.971,9.47 16.436,9.47 C15.747,9.47 15.747,8.6 16.436,8.6 C19.550,8.6 22.74,10.514 22.74,13.608 C22.74,14.292 21.26,14.292 21.26,13.608 ZM16.505,11.264 C17.714,11.264 18.695,12.238 18.695,13.441 C18.695,14.126 17.647,14.126 17.647,13.441 C17.647,12.814 17.136,12.306 16.505,12.306 C15.815,12.306 15.815,11.264 16.505,11.264 ZM16.473,9.611 C18.615,9.611 20.351,11.336 20.351,13.465 C20.351,14.150 19.303,14.150 19.303,13.465 C19.303,11.911 18.36,10.653 16.473,10.653 C15.784,10.653 15.784,9.611 16.473,9.611 ZM14.999,15.90 C15.750,15.688 17.16,16.959 17.656,16.47 C18.210,15.260 18.338,15.52 19.265,15.339 C19.867,15.524 21.805,16.826 21.836,17.689 C21.839,17.769 21.837,17.979 21.787,18.123 C21.622,18.594 21.285,19.288 20.492,19.795 C20.280,19.931 19.968,19.950 19.626,19.950 C18.527,19.951 16.5,18.359 15.44,17.578 C14.875,17.447 14.690,17.295 14.653,17.265 C13.777,16.570 13.3,15.808 12.64,14.456 C11.306,13.366 10.173,11.559 10.167,10.615 C10.164,10.275 10.180,9.965 10.315,9.752 C10.819,8.960 11.514,8.620 11.987,8.452 C12.132,8.400 12.343,8.398 12.423,8.400 C13.293,8.424 14.618,10.338 14.810,10.936 C15.106,11.855 14.898,11.983 14.110,12.540 C13.237,13.157 14.268,14.435 14.999,15.90 Z"/>
</g>
</svg>