<svg 
 xmlns="http://www.w3.org/2000/svg"
 xmlns:xlink="http://www.w3.org/1999/xlink"
 width="32px" height="33px">
<defs>
<filter filterUnits="userSpaceOnUse" id="Filter_0" x="0px" y="0px" width="32px" height="33px"  >
    <feOffset in="SourceAlpha" dx="0" dy="3" />
    <feGaussianBlur result="blurOut" stdDeviation="1.732" />
    <feFlood flood-color="rgb(0, 0, 0)" result="floodOut" />
    <feComposite operator="atop" in="floodOut" in2="blurOut" />
    <feComponentTransfer><feFuncA type="linear" slope="0.09"/></feComponentTransfer>
    <feMerge>
    <feMergeNode/>
    <feMergeNode in="SourceGraphic"/>
  </feMerge>
</filter>

</defs>
<g filter="url(#Filter_0)">
<path fill-rule="evenodd"  fill="rgb(255, 255, 255)"
 d="M15.748,26.379 C13.540,26.379 11.385,25.836 9.445,24.788 L2.3,26.999 C2.670,25.456 3.295,23.958 3.897,22.385 L3.898,22.385 C4.181,21.642 4.455,20.926 4.667,20.408 C3.254,18.262 2.504,15.755 2.504,13.188 C2.504,5.904 8.433,0.1 15.748,0.1 C19.405,0.1 22.716,1.474 25.113,3.862 C27.510,6.249 28.993,9.546 28.993,13.188 C28.993,20.473 23.62,26.379 15.748,26.379 L15.748,26.379 ZM10.841,13.905 C10.40,12.781 9.368,11.551 9.348,10.570 C9.299,8.109 10.827,7.266 11.339,7.266 C11.730,7.266 12.444,7.148 12.694,7.736 C13.257,9.64 13.488,9.637 13.645,10.103 C13.862,10.750 13.780,10.827 13.652,11.52 C13.406,11.486 12.572,12.81 12.647,12.307 C13.176,13.888 15.920,16.316 17.582,16.622 C17.818,16.666 18.295,15.761 18.692,15.458 C18.898,15.301 19.58,14.841 19.731,14.966 C20.216,15.56 20.866,15.591 22.75,16.68 C22.671,16.304 22.761,16.830 22.635,17.198 C22.487,17.628 22.220,19.346 19.765,19.637 C18.917,19.738 17.814,19.379 16.735,18.869 C13.839,17.498 12.657,16.455 10.841,13.905 L10.841,13.905 ZM15.748,24.364 C21.946,24.364 26.969,19.361 26.969,13.188 C26.969,10.102 25.713,7.308 23.683,5.286 C21.652,3.263 18.847,2.12 15.748,2.12 C9.550,2.12 4.526,7.16 4.526,13.188 C4.526,15.954 5.385,17.988 6.974,20.189 C6.394,21.418 5.978,22.600 5.493,23.863 L9.693,22.615 C11.650,23.759 13.449,24.364 15.748,24.364 L15.748,24.364 Z"/>
</g>
</svg>