<svg 
 xmlns="http://www.w3.org/2000/svg"
 xmlns:xlink="http://www.w3.org/1999/xlink"
 width="21px" height="27px">
<defs>
<filter filterUnits="userSpaceOnUse" id="Filter_0" x="0px" y="0px" width="21px" height="27px"  >
    <feOffset in="SourceAlpha" dx="0" dy="3" />
    <feGaussianBlur result="blurOut" stdDeviation="1.732" />
    <feFlood flood-color="rgb(0, 0, 0)" result="floodOut" />
    <feComposite operator="atop" in="floodOut" in2="blurOut" />
    <feComponentTransfer><feFuncA type="linear" slope="0.09"/></feComponentTransfer>
    <feMerge>
    <feMergeNode/>
    <feMergeNode in="SourceGraphic"/>
  </feMerge>
</filter>

</defs>
<g filter="url(#Filter_0)">
<path fill-rule="evenodd"  fill="rgb(255, 255, 255)"
 d="M13.393,20.288 C13.914,20.402 14.394,20.478 14.763,20.342 C16.139,19.836 16.881,18.896 17.290,18.236 C17.415,18.34 17.486,17.716 17.508,17.594 C17.747,16.272 15.230,13.652 14.375,13.169 C13.58,12.425 12.794,12.698 11.690,13.709 C10.412,14.878 8.907,12.529 7.961,11.371 C7.67,10.133 5.921,7.849 7.455,7.204 C8.839,6.621 9.200,6.496 9.54,5.2 C8.960,4.32 7.578,0.685 6.263,0.358 C6.141,0.328 5.819,0.263 5.581,0.293 C4.805,0.390 3.634,0.674 2.604,1.708 C2.327,1.986 2.200,2.451 2.91,2.967 C1.788,4.403 2.912,7.523 3.703,9.430 C4.685,11.794 5.610,13.209 6.713,14.556 C6.759,14.613 6.991,14.906 7.204,15.161 C8.408,16.668 11.720,19.924 13.393,20.288 L13.393,20.288 Z"/>
</g>
</svg>